<mxfile host="65bd71144e">
    <diagram id="yKgaia6UnXFk4fsFHi2k" name="Page-1">
        <mxGraphModel dx="1493" dy="1905" grid="0" gridSize="10" guides="1" tooltips="1" connect="1" arrows="1" fold="1" page="1" pageScale="1" pageWidth="1169" pageHeight="827" math="0" shadow="0">
            <root>
                <mxCell id="0"/>
                <mxCell id="1" parent="0"/>
                <mxCell id="265" value="" style="shape=stencil(7VvLchw3DPwaXVl8kzg7zn+4ynKkimK5ZDmPvw+YLa6GjZme1S0H3+Q1MEOCeHQDnLv04fvDp2/3d9F/f315/v3+r8fPrw936Ze7GB+/Pty/PL7qX3fp41368OX55f63l+cfXz9f/v3t05Acf/3x/Od4wt8XvehSHUrR/3P5wbue/vvh14v40+PXRTyHRTy66Kn4+vTkcqPisohnJ5GJl7iIV9cyFS+LeHdNqHhexENwoVD5tMon18J7nl/nE47k2yov8wkH8nVdz3gC3W9brRmLK53K91W+u1KZfF/Xk8Lc0YG8rOtJ2SWy/uQ8yDfniX2SCyAvdD3JxfW8cnBC15NAPrtI5fNqn6z+QGIrof/k7hJdf139p3gXiL8lPN8SXKfP7yCfZsAdyAuspzhP5LPzIF9dJv6ZXVhzT2mu0+en1f7Vz9x4JL+up6p9SLyr/Jp+6vXEj+T9Kl/mjo72uybP2qbFjuy52qcKldfzXZ/fNB9S/2zr+ptGEPUHyOatzBM5iq91/a3RWmTit/W5o6P8sK6/e1dprRMoL2e1sa+ltGuE8vwM6yk0fuNc7VW+nhTfAvLNNV6sYf1C860ijVVe/PzlQB7OS+JJPYqrP0im+SdifEl1ntoT8rm0WUFu3G+j8a7rN/KNyvuC8qweBay/0ql/hmntjXwi5xvMfrvLxD5hWvtGee9aec96PPrzyX79rM432vNaPW88L2/2y/1B5T3KM3/zWE+l0Hqt/hNQnufzuuZnja9O5AuCeZWvJB4r4pMhT+zTzH4zzZ+ysx6G/9/g/kZBWAAYxDosyiIgzwS7UWApURlCS6jAOEDorlZUoEndI8sYWZFlOcPZVIGVecUduaNCYW/QslVQgfK8Pv1yEzmUCQSEfqrAoF9K0xE2Csy3U8XiPZILAzeCaEizV2BoLpo9aHpk8LiY+tFpvcxtWn2jwDadBRHjUCARpwSjmZLDINcbw9jWEHJwpSApGEWBmFU5RjNVjbGUov8Ne2g0zRRx0ThfIUlAaUYyhcozBc3csIc6c/m+gualigqZBJAyE8x8lXJdpSa46eoC8dbaTXWo09D71UHLJ1hJF0lcQ9kM8OlRP8lJt2jcu8wWyr6CYaSqwM5BCRBmvkJbRE3PtaMCiwelTN2AAJY1msa02UMiIdqDE/MG5hrd5la+JKVB3SiwgtKvuXp7cMSsSmyiqdOsMSkWq1bK1ZTa+IwKDAlIwu7DCFH2hoz0dCQBEtPjeYYfNXIOmhjxHNpsMewriGF4jdY4VSgm89FNy4zgjQLDrKogpgJF/gYxNa7xN2AAiQvsHMRkb6H1Qay3yunBGQVhb+jY1hehrZRRM+2SWAA1E0BCyeGomQkVGJsfnmPQDGsvDAXjGoFZyaaZxgnKFRJuYSipQAPhWYrINt0NmmkUzQzfjOYN7BzEWKnRLt5whGasxLMGJrJOkUDwlkl3yprGK2DXMh9xuAkTo5krIIaTs7SBbF1mv/3oqKH9dx7U71SoM1lvFBhaH/zcmJWm72QYuMwm2b5CMBSF9yRHC9IENSsQXXa6Vow1KdjAQt1pZe/FWKnTMqqAqZsYZa6hkMwWakaom+Bo5ySTKaxE0NcmMj0Crsj8eDNNoXGpRoEtKe+09zqDxmmvv8qWFKZNbqSKSlEQ//QzEoRonftSbTgjGaWb7KFW09TsnIwmgx36LN1H7BUpilD2WmwnRGhFKbYqCuUDyvERJfJkXMoOwmK3Jopl4EJ9qQRz0ldkethrgdsBb2XvsJ1j8z1r52SDjYUPVO1Ehts1icFkHOqmulOzWECkZIYgJ0PPMGcG2wLBm4/o37yHFeve3ITNfbJLpkDQjqudXPHEFP1Oh4lVlNBNjPICEezBNXp5JGTTyG50+h/iThOYjqOCoeCN9h2uhORGtL6L7lmvcoc+ZObbO0Wazz+xcd9m22/fQDuEia3/57z057x0lf+/zUtty411DGxDOdNmrDfkJdL7XH7nfoSn9oR47H0SgaPzXRFC5/nBI6ftddbzA3lobPVM+WNARqtEhg0ZTCUerWVWAZDadU85ecBZUuu0RxXQPsp62KQ0YH5WDsO6nRHvM7ZE5/NxthGv8p7iuThBw5RXesEGJBFhh5IFoesH+1d+v8DcJ1Juwe57RvT/cf+O1ztzv4/fh4L1l0bH/xHv9ymv4PdbYWBbzu5zQX4oiU6P9HzN/U2+fvCHohmeP3+Nx3yCWye3vcrXk/vL4M9KQFj9ijh4zZGi3IB0RukHu28SkGGN+8UUP8AQNeWT/AYIV7kHIw4BhyGRE42A9X0gTLpf8P+3G+VH+dneTyf+H9AfAo+XgOc77tdTPCOrPceFHlpPoQvAiZ7HjhWfjhk0xj9tME/nH054xKr86qnHUsQ/+lBLehBnjmAM70/83qM4u5FhYICn47Ngv2/hSQHGSLyJYjDAmbixO+XhiFD5Vk2C5YY09YEfk6Fz3Ane/V3Ribj+8fYJ05fHp6fLF1Db/8dPnvSny+dS6eO/);lineShape=1;" vertex="1" parent="1">
                    <mxGeometry x="93.50403841182583" y="119.69978978895847" width="277.7149853954316" height="248.28511275500418" as="geometry"/>
                </mxCell>
                <mxCell id="266" value="" style="shape=stencil(lZZLbttADIZPo+0Pct6zTtN7BIhTG3XtwHHa5vahKsg1KYtGdtKInzh8c4gPb9un180Q6O18Ov7c/Nk9n7dD/DaEsDtsN6fdWZ6G+DjEh5fjafPjdHw/PE/vr0+j5Pj06/h7/MPfiQsZvY5UoI/pJCHxv4Pvk/x+d7iST4welHwgpLYOlIjQtQJCc4BGCKSAnNHSOtALKCmgRnB1gDb/7wJUVFoHmAik79QCWnZUdCQDNFB3gApmBXTR4BkREYsGCoqjQS6QswY6uDiAeLEp4MoPNwlxY+OFCid0EijihRHOnUpHqAs3RQeoi8i1OV1uAwVJJ/gYasdo0VC0BnFDcXKj0lxh1/nq2FATsg61uKF6QEfRNsglq1dzGZQtkJ020MlWdWnozpV6QtVAZTSvICRMOvtqATtxkFQzydf4LmBSoyD6fcN4qfNchKtGGyDPoVx1q+5MotOLQ0vo2q1iVXcASQ2TSwIUD0jzBS7A3fSOpkQTgpetXwVyQdM21IbquFUmTjD1IGPMSQ2ZaVHHQX7hakDQgZaTFhwFNpPGEycKZHsM+xYv5hVnBKcB0Pz1Is9z6t6eiLaFNUSnmGVWaXPzPB5vB9juJAHdWwDAOrrszjUOtjuSL18QipH3piB3u16QO5jFO5yMuezJf3Fluy8vD//3w5fdfj+tl9ff7T4pR9MuGh8/AQ==);lineShape=1;" vertex="1" parent="1">
                    <mxGeometry x="50.29150313260766" y="101.54267448457813" width="17.94896744249087" height="18.522806480776524" as="geometry"/>
                </mxCell>
                <mxCell id="267" value="" style="shape=stencil(lVfbctpADP0av2pW0l6f0/Q/MhNSmNKQIaSXv69cj4lXhkN5M/Y5aKWj2w768L59etsMEt5Px8P3za/d82k76JdBZPe63Rx3J3sa9HHQh5fDcfPtePh4fZ5+vz2NyPHpx+Hn+A+/J17LFHhkSfgzvRHK7d+LrxN+v3td4gtJ6/CNWr6O5xAohI7AiRIDC3V1IiVJgCBUewsqVAChmgXtCFEpBkBQyrkjpDiH4SKhNMq9hRypVkBIVHsLJVIEcS2BknSEmigjC0ypt2BSKvAhN0p9WE0ZiYCg1NgTGrCQEmnpCWazXCfESKV6QpPrBD1nzjn5PvPxIkOY2spEBQQW4uwJCsJkibCKEhIuUHH4QhUEKZAUjw8oRqu8yMRANTYDfea1RBERTNRehBbnIF8+keV29YQCXIhrDYygIPOUQvE+oCBls7AiJNBjcp2b3CKsAmSz+owurIUYJJ51gBw8AbXibLr2TckyD/XJVGddF6mN+mQ0wqqgK9BBzcXe6Zv1mXxnHU2g7EskwRMSkpraKkqox/BcvQs8g6iu5uHYh4HH9+Iz1egHQwIaMPtasNGDGhgraV/P+dyXr0mgvco2PhkRVj7YgEbzlosXwVaAjHwo83RdLBlINbYk6KN0Y425kBewOm3vau5EcBGzORLE4QPwWMrs39kBiqg0xeMDrDO1XhIdHi0wMVPyeAZ4WxZCdXjUKGwbqe0OfBGK95yn2hjUO/ytee6E/xfPxh6P9Rpnaq8Xzoe7F/+beHv4vGW87Pb76ZKy/O5vJfZqutHo418=);lineShape=1;" vertex="1" parent="1">
                    <mxGeometry x="68.69928260771826" y="93.63818568618922" width="5.13517568128691" height="69.21993168570495" as="geometry"/>
                </mxCell>
                <mxCell id="268" value="" style="shape=stencil(lVfLbttADPwaXYnlcp/nNP2PAHFqo24cOE4ff1+qxqombU3gmyyTS3I4HK4meXjfPr1tphjeT8fD982v3fNpO8mXKcbd63Zz3J30aZLHSR5eDsfNt+Ph4/X5/Pvtabacn34cfs4n/D77CVNqs1cMf85vAoXw78XXs/1+93phnzMFa89UZd2+MmU29okiOL8JhWLsO1Vet++Foj0/Rmpx3YHDUuDwEE0p3+WRMmXg0RtJMg4KWwdV90zVVl0ytQRg0gjROChw0kAfrvqmyDVQQ64kFtgLHG56JB4ZLCE0y7ruECuxWIdMBZCJA+VuHSJ1UHWhXr09A3IINZdQIO4gIUo2n1YpAbaGwf3FPlEATdDozj6McV3Jh20+tVIAHZDRn8U+EReEZ7L51DhodZvX1C2tVQ4CarBQ6d4BNYzrVcWRBCB6DamWnEGLVU6YPaYFjIGCGqxDY9gEjVCdQ4JjoG2OVl6Udh2h1Khmz+uMeKT6ZlHSwRGgR8xDrhaHBYbbAkacfIAMak7Ugq+gg4Ti4PECUftkMl3BLY/FsmLvVoI2uYAmB6qOdg1OmqJh8ZkFHMm1V2udgwLOV0a48xkvwUjJjXIYw73qkO9xkEa5+pIrIGlmr6aKqYCeFZUvV3QfanB7acrg5LKWG0XQ5fk8W3SOUF2UNdUWLXiUa/ErSkW5gpQ0Y7czWZNEsKoe2qsFF5iSBGq2BlXlgCT1inyMa5hLtORTgerIIY81szikEXNNtIuLIKOVq6LtIuj1B62FSNHdXSiCNqi9uIGjCLqg9t1Rb2yJ2/bJrykZA7sGqbvr8Ai4drkTO50B3mgVDndnDpCm9364fG6vD/+/kl52+/35I+vyf/9Vpa/OX2Ty+Bc=);lineShape=1;" vertex="1" parent="1">
                    <mxGeometry x="378.8349290702797" y="377.87747673139256" width="29.412271223976916" height="30.695187893966818" as="geometry"/>
                </mxCell>
                <mxCell id="269" value="" style="shape=stencil(lVfLbhsxDPyavRISqQd1TtP/CBCnNurageP08fela2hjcb1T5LZe74gccTiUJnl42z69biYOb+fT8fvm1+75vJ3ky8S8O2w3p93ZniZ5nOTh5XjafDsd3w/P19+vT5cvL08/jj8vK/y+4rhRkQuKw5/rm6hU8r83X6+A/e5wC0gkZQBwoarrAFtP8wAQpQwiSOp/d0AqEJASxRGQhUpYB+REKQyAEkh4HVASVR4BhQKIUDMlHQA1UirrAC2eQy0kEQCY0piSZooowkxxBkTSBDg0im1MqZKCSl8AaQRYHSpMKY67VEyOiAMTB18HBilpouYiCClKSYlHDoWpgAgt+gYygAK1tkQaR4C1FAJUSi5CpSAA0IjHStcA+yGG0NU8I0zxAGEhitO3Qm00JRkjWC0rIlF8SqZvBT3ahILTd4WF0AUHK35usEd9B1VqSExCPHaQLRFQSoGai2CscI8mZxutC3gNEEYxmVUFwMEAdSGmhjjEO3KFTiaLHrUJADjYrkfnxkwNaSlQjh5QQATTkjqfEaqAg6m1ONsoXY6rAPkMwOogI4ebrr0/tKo3mov1AHfNxQ8txWKywasOYIUAHSTiWZv6UI8y9wEyb5NC0pG7081ngdaH/f2UKI8ZJaUGNmnhlJJhOywswCgJWD+G7hBznSN0pZi7j84ZUUM7VBcHOOhJsXkGgSoQBS/6P0AL44UmsKw59+Pmx/cFtCZXqiNffOyxE3Hy+1lAY0rozjArDq4v0SvORiOYnPa9uhN6pICaLPoWiNKdYI2BO6HHAlP6/KXh/wB7+LijvOz2++sV5/Z/f6exV9f7kDz+BQ==);lineShape=1;" vertex="1" parent="1">
                    <mxGeometry x="411.3050911795722" y="382.811165419316" width="29.53767047919854" height="23.85210308039177" as="geometry"/>
                </mxCell>
                <mxCell id="270" value="" style="shape=stencil(rVjbThwxDP2afbWSOE7iZ0r/A4mlrEoBAb39fZ2uMmw8MwdV6ttefGZi+/jYzoGvXu9vno+HFF7fXp6+Hn+ebt/uD/zpkNLp8f74cnqzTwe+PvDV3dPL8cvL0/fH2/P355tu2T99e/rRn/DrjAvEtYNS+H3+QRuF9veXz2f7h9PjhX2iEmf7QoH37TOxs8+U4759GW9f7BPVtG/fKOXZPlAB54+BWpoArREHAGAq8xuaUAEex0I1zAALGnAhKukMqEqcQQ6YuMwAoVoBoJDOPtREEbyBA4lMgNIogzdwpjC/oWRSAYBKwjMgEgNADqQzM6RSUwDIlOYoSaaC3lAHMxdAhImTQFknQG5UQJSESeYoZYHslkJ5zkNO1AoAKMU5rBY3lGmLusxhtcygKBWm6gBCDCquCOksMcwU0RuspucSNToqKNEafD2YLFTgtLHfhdUqRIAPNZPMR+rCBjJdi6e3KWcEbK2NZOZSlwWQ6RYG1RZAxUppKjTLTBQS4EMzpXYAHmHYBqzEO8bh1TbARGBOnFID0mpS3ZwWE4MDWS9w1CtDprbtjReueigDWlgvi44W1EBEVcZxlwCN5rJnL94eNWez1/n8AdJaVywNo/S27Sslcfao+fdZInp79Hwr29V5QOHr0icv/EXxVK9dEZ/HStAVJeSzLiX7zoeI+KBU1NmjEjb7NMeT8fObry/GfK5+OGLYAM0+OGkfL9zjG3t7WL9CLbr4KOKbrHQdDpu9HufnxyEwu89nZ5+Qv8tY9s5P1Jd6fHy9MPLX4h+cfUB8sA6xql9UX8Yf//yI+Rn982H8jf/F2TcwGfT6Ehd/BvUYQ/ABimOK/D+AnoG5YmQsSHuMCDODTFJRhtlXfMMRCqsmHwdnt1uqrhw2TUFzx6oH2BiBmqqtS7waVFAXa7wCKGxLzapwBljWMoiS7Vdx7gNd6NA4Vyk6IRKYh5o9Uy1xAYTVRtLqpBr3Pht6Xe/mBMW0j9WuedhUi1ZxmyYcoMAo2WogTt4b3FZs+XDVkJdUbq835oPbuBjWpyy7yQIoMHGShuIuAB1NcXtr1NWauaRyG1D8imaHrMCHvvK5zVfHXLW9W+vY1Zex1/ogOJJtcG7OKXZIQD6jmltki8JLEWO/294rbv1WX263tpUKZbqPWrMS24aEhjUTFUc+Ex60ccXiRaAtsrB3dZTdkayBAadjGH9f3H6hBmfz8vp2Da3Wfr7TAqU4+/3J+h0aCNO4OljsFbbD5KvT7BvgXRoaemGPBsLor+IuGvwOwC0UHwFWt1L9RKAbBj/xdI9BhMLI/2VEQQaC72x9RwIMMu9WGYsgoqv5SPFAEvy9YJ8pgcKHsdBc2DOOzz/dX39sbx/eL8vvTg8P57v2y//95br9dL6Y5+s/);lineShape=1;" vertex="1" parent="1">
                    <mxGeometry x="100.98419183681494" y="182.7268671679151" width="133.86549857066882" height="173.5301601529858" as="geometry"/>
                </mxCell>
                <mxCell id="272" value="" style="shape=stencil(7VnJbltHEPwaXhuzL2fH+Q8DliMiimTIcpa/Tw2YedLUeyzCNwPKjaK6Ob1WV8+c4odv95++3p2C+/by/PT73V/nzy/3p/jLKYTz4/3d8/kFn07x4yl++PL0fPfb89P3x8+Xv79+GpLj0x9Pf45f+PuiF6LlMLSC++fyTbF4+eLXi/zD+fGNfPSWOsnndl0+eeuV5F0S8tXq+vvZursun6OVSvL//cCxfLeUST4Ke0qzXhb5aE3IV4RvlQ/mhXwL1tf4O3PC34Z8RZL3Rcgna43koxfyxfwaT29BydcZvld/m5JvFh3F3yn5Pv895VEgKj7I7xof76zqAyigHhmuUiGuFvmqU9asUki7rGnElGoOQU2iKZG0vpoUkiXldLaydtlomyzLKK4+DJwQUaroS+qbLgu1wIC1UFORPuTCPmQYKXwAtPg1SiVYFFgRq6W1VquzLE5AbRLY1WZFJM7vaum1/44VoqW13bqfBX+ch1mam3yZ1XgcVYav3swpfGcHIK+SEC3sf19kOVhYI9qRRdE7ftbMJp9nIR7KAxxW+O1RxsdZ2MVflYTj+AM+vMiXY7hDQRQxP2DP2jXo1CB/n8YrBpCax/CO7MeJIv7oqNUedICaB5FxpW7gd2yPNxdZQaEvWqyQQpk9dGyR4xar2ZqCicI1BAV1QooTCTeFZEUEKcEHAiLQABGlnC1TWIOmOdk80cA+ieExrmDMrzyqbEPoWKFN3rQpYPKrkZPZacB1FnlA51KtguwVcQKggYoPCqpYB/ZQlPzEy2OFxnkoybwyqc+8bgp1Erjj8nY7hEFq1KDFEW3XEFnUBhQcYYybbl0LUyMQA6USxYSZ5OmELFGgJ2adgEnFXzoIVGMFr0xyOx+SBO7BI3dI2UW5ghYWgso6se2aAq0uyLSabVBoVK5NogB8qNTUabLj4yh5RjI0hCI8yAOtI2i5rhQSm5Q3MLxWS9xBTm4M6FG/9kOJkmKgHwKtwEWice+849UbJnVeADBRbpgUV5Nqn3vWNaeZN2yAfi2slAe0qCLPSBz5cIPJ/LAC1iTmSttyfzyC+mzIjbyhy0XiMGX7GiUUvFIo2+XJGzqpoBJLTCIF7EFqsjtGPmSmq60n8vY5Cl6YhK2H4H4UvCZM1bNCE6ixp2RvpthV1hf4CLX2/IRrDMX0/zXmPa8xyZpjeXXD48ElaClJczM+VgBek4KTF5GjZXZ0W+5JabLGbTLHeTd8DYnIh/GNcBq/59aZE3VVDPJB11rJksLrznXn9T1YzXytpS94fsbr2tWed3hdW27x8vd3XYs6pWVkvNMIH4BXfneC4iGv9wmbAkpDjfDOtAK9Jmf+7ikICqqW9m9No5tFpvePWcMk0c7717JxRSzCun+OwwleEJdRao5PUBQ1+N0DVdEmOW5RFJ/Kw6B35HSUUYIC15KXy7lvsyG3Fm2SZh8oZOvaB8bVKBto7/TgrGre7q4ZAZ3igH3eqnR5FAa9dkgG9qMPwbfl8eH11fnL+eHh8mj99v/8So2vLi/c8eO/);lineShape=1;" vertex="1" parent="1">
                    <mxGeometry x="251.87112653655845" y="191.24677763871978" width="57.970421327541715" height="24.657388787808827" as="geometry"/>
                </mxCell>
                <mxCell id="273" value="&lt;font style=&quot;font-size: 16px;&quot;&gt;&lt;b&gt;Normal Trigonometry&lt;/b&gt;&lt;/font&gt;" style="text;strokeColor=none;align=center;fillColor=none;html=1;verticalAlign=middle;whiteSpace=wrap;rounded=0;" vertex="1" parent="1">
                    <mxGeometry x="116" y="407" width="211" height="61" as="geometry"/>
                </mxCell>
                <mxCell id="275" value="" style="shape=stencil(lVrZchw3DPyafUXxPp4d+z9UZTnaiiK5ZDmx/95NbzgaArO90dsexJDE1Q1gTvHDt4e7r/en4L69vjz/df/v+fPrwyn+cQrh/PRw/3J+xadT/HiKH748v9z/+fL8/enz5fvXu7FyfPr7+Z/xhB8XOSctD6Hgfl5+yFmc+/3Lp8v6x/PTbn2QUNf1UVq5vj6JT8v61CW36+uLhPU8KUqt19dXiXFd76TE6+u7jL9262MSR87vnfT1QNjyP5UdCwTJbhWIEgMR2BQ4BXyXRq7gs4T1zvilEx35Inm9A/YMxMgeV1ytDDUEpqUuaTVzkUqsHLxEZWap5Mpwu6TMRm+Mv3NU6wMxGrYvbTWaZPZ8KNzr9Z6sr+KDWl8SWd8k6POwKIBbx6rWN2Lg6HXY4Dzk/DFI72q9J/ZFUMU1CDx/ftb+48Wx5xfpa8y4qYDj9W0G+dt6luVinyG7ez7Lcm5e700/jtw3eX1++DPxhxT1eTJfD39en9+ksfPgccpeAAZigFTFqZQS+A5NvEpaCHliAuCEV2kxSyU75C1FbQJVMkm82UtaBeB1nmg1I0hUas/iSVrJG3ZtZnbiiZ/mNLW+g6dIEiPQuqvEWGgmzVUDMmKjM7W26fmbABCcxELuOpdCgCWvYiAWAo0Yrlg0uEEqAAdJCzA8KyZ+oCVGc0qeeLcTYIhQEEBdCwTifKXpeICAJwFUkMPMDo7sUJ1xvkbjoXpjuEZhtsaDIwXG7o7swJhLzUd3IL5UqwRzJBbTtWnGHDewPhbok6rsBBJxjeanXfe+RGK6hQPXYPHQ4mQfewFih5ZMmmkzeR4LlAP3juzS1cR0oxSg4QDG0oz5t66zN1A4EffuTuqqVsBqJs7XvWZJwNVG1NqjrqYSx7ieNM8byE3s0LNGoFSm3o4Fqi4uINCZgKGqUHRmaq3al1rmdqjaWxFSgdV48KX10shUDLKGgCpf4qwTrwkoQAEQs2QMAe1LPBlDrSqAUqAlVbfx0CmFg0DrWoCWzl2nShyJ1c59e97el5hau87eg0GxQtVtPH6zHCqNTrdQMQrYcyTfjzOt+R6QwQgTBPK6A7In9e8+gX8TaDyo2+wPTAFkHlbODN9YQw65LbJLw/vWHZCfqanh3yqoPc+VddKjTa3pZlCvRyrAGB6jabUDuC+jxiPPqN6Wu5UFFLIDIAJzPmCg6oY5npiaVEONGXfopmrCDtSX3i1gAGIckqnVQFC/kb4NyEGgMm81MLrLC1eROpstmKmdNgRuXRhj6pq5Qg/M1K3pllUPnPUZxjSyAPE+y8lwK1bUWNY31MBInOGVECjEDpa5QiCzOxhuPHZgNYph32+07n/y+6ElciRbQQw7EF+yNcoQYCWHqYJwJNb+tHXWEGBlk40HR5Ha1orjDsRbbTXaebPF1rud9wRtRT3uwI5kavbhS+/qCgwYZUW+6TsgLTDuYDsbrdN4sL0TCDBkt92ZWwJNt4pbp/OMXKbWd3SmEMOBOhd1hzKh+1qXTGspSuJ9OAUQSAuMfecw23Q7dkI7fV73QxEhnvXhnGZYoDOVXBr1gkpkcEfWVktV93ThjpE1jcvsuu24NIs41J5FMaxGJ1egR4rDwVlYGyFF3a2EKRmtRElf1ZG8RHYHp4+UOm3njM6haiNU2qK1swcomt3BDjcgwHzJTk9gmURC1I5nUqK1op3/QIAlATtggikZAtkJ1hj8spFdM9VolMZmalVPIHAHptYxY8lagBXIY4jZjB2Ie4d4UCAzRhaCJolIC4xLB69bIalTRuZNzT5yIYEs30yIZj5c3gYUu7qMwa7Pek4DEGP44JO2NHCVxbQPunoduZX4kvd61gT2wUYWXROBysdlVfcQQEvZLKvoWhdEOTII1WwMXJ+1yZOeP96A6KDn+yANLNac5gw3Kg2nDTaYGDmP090GnIf1M5whPfyFBjfH4TtGwtpQQH9DSFiX1c1x8rY+07dQTFtsdED5etUArTS/OxNhkfYlnCZghXfdnEa0XGkPzZmslWk9/97Xnm6vx4e3d6y+nB8fL69o7f/X72Thp8v7XPHjLw==);lineShape=1;fontSize=16;" vertex="1" parent="1">
                    <mxGeometry x="638.0590469152678" y="97.48506551682385" width="303.0899020835358" height="15.119269950494925" as="geometry"/>
                </mxCell>
                <mxCell id="276" value="" style="shape=stencil(nVrZcls3DP0avWK4gctzmv5HZuLUmrp2xnHa5u8DViUjgPcepn1THB6B2A9AXeK7L48fPj9cgvvy9vry+8Nf149vj5f4yyWE6/Pjw+v1TT5d4vtLfPfp5fXht9eXr88fb//+/KGf7J/+ePmzf8PfN1wK1EJHBfft9hdPLv3zh19v55+uz/o8N3U+UInwfEvqfKTWwPlIpajzmTw6zxT09xdqGZwvVFmdb+Tr+XlO1PR9vKMUzgHZERuAHyY+BkRyVQMiMXBBTsReA5gyksDkzJXECgiQqZortWG2Y4AYUUuQMPrXDIeAEqiaMIrkgYRSyGulQ4KOrn74dQLKMPQxII3AnIBGCVypZht60Y3gPQaI1aMGBHIeANrw6wRECkDpNpN3AhIloHSLlLVZYyYGSjdJx6wBlSKIpVYpGB0aFZDRAjB+SB46rombtNJSdCIAeOfIOY1I5JESzXpO6k4BnmvFai2FxzsAWOpqqpSBmaqYXaccO1gpK1PSEthTRIBg45vnJY8BbkTzBEg1B44oSzHmWaqOAZJyOqk5w8LUAdrTXLcSDKDB+C5LQkgHyCBHBWCqcQ74SkxNW0laBiMJTFU7rncAZCUBaKWlA6SNBJ0PucCk7jro0JCW4QBv6FbSVyqOAgYYxxUPm5wATMaVCBOotyCtdEmUcc8y1bjbDYeGvVIZvf7UrLrMlAbZiQCKjiVJ2oZSNA83TUAY5fYMYKqxNFbU5ASQdT5IpQrID3nceAIy7Ltllt4JqCNpzwBBR6t0YtQVBWCUbmJWFK1xBMIE4J4l6VL1lVoa5fmMw5kEaow5XBgqTgAOPqGpzujQRh05lrAYqY2WdCxgmPDuPCICS1cXKpGBAm7xQR0Zfjw7UPLWQKhFy6QQmgVE4LNOy4sFeKCBmDQuAAfyX+hgc4sE4LN0FBWoHwpt4bRYCWSnkIoQFzeAKwmpMLxEAIxmOD+a2X0g4SHRtOgeqUCH5BYrYZIrxJ+XKzUgoY/NWsIdiz0OJrbDQ09PNJ4cpCdKn2iJj5xHHdqN2L9zGyrbbow6d+dRXwjWQm3OWyf6+iWdUWcTg4YF4LHPeEk2RHokKtYrwUB1iw8K9EEHLEZCgGXw6TojI0kbMwCGmwDPS5GMkCT5WXTvWidqIxIYZmjYNGcBsM6cTfsXgEm1DcHoSzNDkjCFkVByhrdhkiQAY9YNDROAMeuG6PWKZHgbppICMFPGhqz2CmMIN2Yk3Q/a0xvCHZape0PpD66Eh4ZeA3RobMYSARQDwINPN+t/Gq06QCu9Gd66p/WVNuPhgQQ8gIZ164tH3B6tZibGQ3T3g5GAx/QO0J7eLAJWCX3VgCUUIyFjPyQbS8w4gbLNaU5wyxqW3ZuwM9RDo7dNV8gWI0C24Z3mZHMMaHba64sxREB52aQVuOJPzY648hUNEdBlcEhSNYDSnYCafWOE3E0AxUjw8JlF3GQeEaTTo6YoEoynxdABhAYvdCwWWCrT3AtPAOOnIiGs2koxwuW1GDEu+/SAQsMvy2s3nqfOgs/MV0KI0N43zkCYABmXQBGIc2k7AZvGnu0yQ+rIhv7w8jZTUF1ydiETNpNGHZV0ziZlrPvOKFzSVurDCtrYs+1xfrbJY0AaY/AEhMHeT4YBE0oyvKPhhxdqP1L8ZHUQDbmC/XCJIvwIyna+xW+sizHxEy6PJJymgS/E2Vre4c2wpc4OUm2/5IuMlej80pUdbAYSmmYwd7iJe/u+jXMlZOsrfF7qQ12+H9WTtJ5H+sbleQ7bU9pKqZef99ePp7ifC4f/8XuEzXn58OPHD5+uT0+3307c/7/9sYT86fZDi/j+Ow==);lineShape=1;fontSize=16;" vertex="1" parent="1">
                    <mxGeometry x="642.217206322834" y="108.28378463726608" width="14.614171896253083" height="261.1753102079292" as="geometry"/>
                </mxCell>
                <mxCell id="277" value="" style="shape=stencil(lVpdcxs3DPw1euWQBD+f0/R/ZCZO7alrZxynbf59FlUp3wGnVfwmy1gdSQCLBXgn+fDt/tPXu1OO315fnv+8++fh8+v9SX475fzwdH/38vCKTyf5eJIPX55f7v54ef7+9Pn899dPaqmf/nr+W3/h3zMuhlEVlOOP8xc5VPnvi9/P5o8PTxvzHHIy5q1cN5cgxZhLu25eQhFjHvt18xpq25mnMIh5C12MeR/XzXuY0Zg3Yj7C7Ma8kMWkGPr+4PHFJPY4imnsYyT2EpL7fbaeEmo0Z0/tcfh5Z19CrsS+hba3ryuUju17GNY+sfXg/JtZz2SBHFdovdk38vtwpySznkj8pXm0//22HH5sL2Huf3/QcNPjM8EfOQAOMOGP3GU7GCHuIwgx0kmy5xlkH6LpknLH7BDXkV8A2DThB0GCmz3MdWzHgBzGdACyaZEVNRsAIxWpNo4AYLQiLaRhAcwP0hdnbgEklGQ4XpycpbHF6ACMp9PRpgkblRyS88P/fHAMkMWeG4CQPRTwl3kCGIE9oa4tbgHsCf3AcUI8XWaIewoD6STi6YpiPCxgkPCuORT3hEn8UGVV9w2AhUYttkxpkWWAFqJRCI0WqtptodLKyzY9VqgtAHgkk2ht0ZY2pQUmFKBy9sGHpO1kSU1W7b4UE5QXtiQUs70fNEMYoFkSQMBHwq2th1IsYLInjFDMHhpN0TZtxpWxwvFYUEXL3gh4Jgd7XpLiAkg0NLos6r0A8qpJxwD4oVgA3UMLOVpAZoB+sAdWp/tYobYBZOLpPi1rKIAc60ghuScIecJwqr9y1higmf2mUZMacdyoiyMugLL00zGgWV6CNshsScMWFNDMIJueyGDTu2BJxHEzue4FwUeYb2bbkCgZE8dNWQVqA2CiezpxorKXAZoNjRvyZ3ZLZDeUwByWKlUJMMC0ZfetZ70GMJ2J9pWEBAAwS0JBSSw0pu01oNFYYU8x2vhWNiYJoY/YbwI8U/kxWdqYtKIAYLRDK3QTAJh+ADWGFbk5rMLSosQyaIS8dwTqZGGb7tYRLa2svQYwKQeBM9ge+grOi+M6DyYHgLrupED4JQkfkvhNQ2Gx1tgfq2o4FnzOcZrU7FhdaKjSfVfwof+ljnPhre0p27RLIFQU1owe5SgcwTznaKDGm5vYOwLilw0RPJW1TDfhyVKFI48NsyTkaGNPeDfAVQgAKjtWV4Na5wnhqlzjdKx11BET9UNe+bIBsOkVtIAZtkBeVwaIdpzTI50XQc8YAdRLEAbothvtvN+FJjPDW8g6KuLEjhH0mQwArb3fg/ICW5JTrpqDpEB4bawAkg9efW944RcFvmYtcYRvIZQ+2RNck6JJyFoIWaPbLYC1ENnShpYA1jfFNYG6ADpttJqbDc5K5znIF9ODI2szOSUQnen9kFPCmva65PwlXMfqaI8BxS4JXQjdQ3YJIXRyB/ViGq0Rl2eOZyHTdjUIYFZ4UXBMfCMcmTypzc69O1dMtdp8QHQx1QcFlh25MtVXxY6Y4PtCwls77mkBLDQKSMKVUea4Mg5KELv+KW2NDjcFIrEJal1aewOgA1FZkm2zJDb6htppbg9sUlGSJQGt7OyUop1JKYBdEMwlbLcANlz3DUGncwQd7HkAG65XV9l5UyPuYk3lDAOIpcrWaZev/YJZUguTAVwZBYA1vHmume+mV2RzhOyuIMCFrMZlN1xvcemVY0C1+qciB9n9V7Eth46qCZFpR7IPPjAVfUKyZRc9e2KnFG2fVSOlmeT6AQAKu0UdNpYASPza1VzUFN6+pmpv2Mqgs3K9RNx7GlxIb47Fjb4zVYn+qhw8ktke3F28DFpQ3F0/eIf1x+5VAthXJhzcSKDTHbsXIfTOkNUGO6mUTgPVvcYB2mQawM2LYc9o272EAnsmP5361EtVam/6jBuzADRj+xAVfo0Q3RXWpPoiunFJpYNfN5nQd1FIVXP2iRc1t54kN+zNfnkX5o6zrXc7fs1bhRZYHwy0cLzzhaeb5vjw9m7Vl4fHx/OrWdv/23ex8NX5PS75+BM=);lineShape=1;fontSize=16;" vertex="1" parent="1">
                    <mxGeometry x="690.6050737539815" y="101.6866850038216" width="310.4120691663721" height="15.6231317364049" as="geometry"/>
                </mxCell>
                <mxCell id="278" value="" style="shape=stencil(lVbLctswDPwaXTEEQRLkOU3/IzNxak1dO+M4ffx9oWrompCznd5kGSsQuwsQkzy87Z9ed1MMb5fz6evux/x82U/yaYpxPu535/liT5M8TvLwcjrvvpxP78fn9ffr0xK5PH07fV++8HPFxUZaF1QMv9Y3iTT8efF5jT/Mx5v4lInLEM+VMn8MKImSDgBJlOPHgLYBlEo1A0AlzgNAhVQAoFFzgEYpQUAZSaqZpAGAkow1tEANZRCKDpAhS1Wp8gioVABLlSmPRXMIFIDUmj2vxkMCvJZGcaTJeEAZzBt5NFOL1BQAmJITQklB1SWQjBmMhwqUswwSR28UCtjfccyggRQot7jZ+btQrkCHRMUBEjySlRhG4YqQAB2MRMk+QwaARaYwAhROATMCO1qZGuqgRnksWpUSANy4+Sq1UEKDpm680YiB+2wy+Z5LxKCr7XvqOsjsCoqwE7tBYzxoAd5QipseraBHjXYWPzdgj+bekTdFJ3Ck+wBAq9R+4g7IDU6BGLr9r3cW91vsLiBTGFmN2ofh/QTdadf41OfO3fjQNbrG27QHImycytYeQIPgRWa7LkC3ce/FqwKwdTamK/2Ovy8wlbFaazN0mOAHJMO7k5O/RewDgEzbP5xa+FozdYu4eLTxWL1uH4lwmP7vRvXveHv4u769zIfDuv3d/u/XPXu1rory+Bs=);lineShape=1;fontSize=16;" vertex="1" parent="1">
                    <mxGeometry x="609.3166883886208" y="344.5628289181768" width="15.417148069782058" height="16.665029355103513" as="geometry"/>
                </mxCell>
                <mxCell id="279" value="" style="shape=stencil(nVfbchoxDP2afdXYli3bz2n6H5kJKUwpZAjp5e+r7c4SpIVD6Nuy6KwlnaOLB354Wz+9roYU3o6H/ffVr83zcT3wlyGlzW69OmyO+jTw48APL/vD6tth/757nn6/Po2W49OP/c/xC78nXO+Uy4hK4c/0JlNo/158ney3m521l2jsY6DQrwNi0P+DRRTKGR5R2ABSpIAAjUq1AKEeAUCoNANgpsgAkCl1C+gUkUtp9viU1kwi1wGtU7BB504tAUCkbGMo+gkAqBqDZVqEBFAtnZJ1qTJ1cIKw15I6mep1gHosyQIqlQAAmdimtRfiAgDKg1iASgPwkCtFm1ZVFzohB0pW3qpfBmnlSE08oAPxJZ55PQcAl6JKjT0ggxM06dnHjOwTFdsDep3TfNE+LEgos1Ku2DsddaaKUkri/E+UgFC7r+YeqINqjkItegAKOGl8TtgqddAlWYszekBDstMIxbtUQAy5UXVJirD8tXT6ggXU87Q4s23D2jYrCLqcmu5ZcaLJoC0xuBMqLB3NUnXEdTitlIe6KJ0GOpIy3S0PZwPvspgq8aKc0WjoVF2DabMcr1RDTz5JBVabm57KAgpgMc+VZgYk3GuvvcdmtGkDxO2u2YCrUATlr+uE2BOkwVIYKbBDQSKWUfcdT7We0NiRee6dxj9jZev+YU9g3YJA0CX66uQ0T99r1el0qlsVBCzqX6lHK0wpfoW5sRkqoNkTbiyfRRZbFdxu1d4pg/H3Tzk/hUwRLDwqm2wnT4TLhWg+bP8KczO4PMiDXzt1OwEJrcV3YNy7WiCWe+xPfH7On3Gs1jvi1YnU78nnx/L3Ob7GTmv5xXr4j9vUDXt9+Li6vWy22+nmd/6/v+rpq+mayI9/AQ==);lineShape=1;fontSize=16;" vertex="1" parent="1">
                    <mxGeometry x="625.0564916356125" y="335.8811194175719" width="12.15248428219411" height="64.24920172127315" as="geometry"/>
                </mxCell>
                <mxCell id="280" value="" style="shape=stencil(lVfLctswDPwaXTEkwRfOafofmYlTa+raGcdtk78vNBqqImRv4ptNASSxiwXAgR/e9k+vuyG4t8v59HP3d3y+7Af+NoQwHve783jRXwM/DvzwcjrvfpxPv4/P8//Xp8ly+vXr9Gfa4X32i0zsJq/gPuYVR2Fe+D7bH8bjyj4xZWvv+bZ9LhSKsXdg/yLE3NkHCmB/0eNTZy9UK7DPNH1b7x+IkUMliZ0DF8r5toN3S4TNQ0ETueeIrCsBBuFr51A9cYEolZ4FXamAhhosbXqm+Ht4XuFwPZMi1Z5pkcbNVYfoNg7KBMiNUMiZ3EgkCVBHxfewVgqAamdztSaKIAIFpM89hZkjsq/9fSZ1gP1Dg2Oxz1QQBZazEqkAQCvF3NtrNQD3975pceWQQAA+kc/2RhFE4EsjdBWyB1rzQmJirpSBgyaFUbNqDQWtrBk1V0UVoSRUpHf4pMLo5x5WVbNDQavU+sQTTXVQ9JS41GeeBErgSpW8s/Yos6OlTS/kEaitRi8QCYzYWYRqpgjK16ZkV4YF1VE0ynetj96oLNITUEpD+AY+bJSf4P6FeKNMQfdxLSVXDhGVxmgZVmWi8q5J6sSGkJCDNKWvMCpYyvc5TKOBWAcHWJ6GI+NQoTLTst8qL1CeZrHjS8VC0Bub1q8FD8GqLSOb4UJbNWC6bmYF7dQZn1D6K7EWWYCSxmD62pS/KOjYknkZLlT+4ISsau+J084CiduMtergAErbuVkVIqCkRp3QknUo4EoKoqnBkwZBd9a51KS3Z/Kg27JmjnHwUECcbFnVOhJAGVOHYCYqigCkrT0eYLYXiq29fzHiReFfhDTAvLvCGc6iTVI42Kbufa19bq8//j8NX8bDYX5Zrr/bp6Quzc9QfvwH);lineShape=1;fontSize=16;" vertex="1" parent="1">
                    <mxGeometry x="1021.0260795945042" y="100.65336357415595" width="34.015318272501815" height="37.5112083420197" as="geometry"/>
                </mxCell>
                <mxCell id="281" value="" style="shape=stencil(lVdJcttADHwNr6hZMNvZcf7hKsuRKorlkpXt9wHDDEVAZCu+URSa2Bo9mCE+vO+f3nZDcO+X8+nr7ufh+bIf4qchhMPrfnc+XORpiI9DfHg5nXdfzqfvr8/T77en0XJ8+nb6MX7h14RjR1xGVHC/pzeeKaS/bz5PgOPhdQGIgVrSgEy5bQNCpBIVIHgqAQKCV4AYyRcI4KwAHMhlCMg66SQhYQ+VFSB7igjAVJoCFAyITNEASi/0KoATJQNoFEBZU6FSNaBScNuA3DoRZoD4jNuAwtSc9RCBhyJ90GUdPwG4JICSbFkTSFoi/leTuXGSNKDGWHWdQ5akQR+qBKDZmmd2rQMSZc3WHKiCstZGja0H77cBTdiqO525T/k6oJDT85Bz5+86oJHX5BOyVNBp7xw5w415zLdcsJaNIjoDGiFJJANoVECrG1PSIdUAJ6g5Kxs1QtmomVizr4q4MgAEK33iIaGBqMS61cLHigDCPm+rFEEfpE3N2z54NHISseZ3CZ3xW7KRDF0blo3cU1zQFYlrdTcqwJ3A64C5TYsZRcJUqyXfONRogqQmBhC78qwDcp/5hTA1xNZK+Ub6CiDfhwGSdNGA5vEBUazet9TJsn4EFfJ6RCVIDzykZNkqOpJBlVi0UrN1IVXrJ7XvB8giJiRMwVG8yRoqGVUjAq2vH+sRkdPfr7gNjrw5dSVjEM+NdN9ZfuT7ep7vbFfOrj531jfXq7fcD0F9JFptHwJcGpLtlxeSAHufbs5bYkSIbAUvECPGcVfobu+w/ez+ag8ZXe1Yij3gj9wZSrbxVGAvWqfz9b3C6/bc5f9aH8TncRXW9WFy4EjjbCc49QC37M0hW2B/xd4MQIOLtsQfzR3MUUUOJD89MT7AE1M6YJYpoTRM4aPXwv8AyMP1FvpyOB6nS+zyf3trlVfTjTc+/gE=);lineShape=1;fontSize=16;" vertex="1" parent="1">
                    <mxGeometry x="1062.243485998445" y="98.33782176695172" width="29.44451222536884" height="36.364088546697104" as="geometry"/>
                </mxCell>
                <mxCell id="282" value="" style="shape=stencil(lVpJchw3EHzNXBHYl7Ms/0MRokyGaVJB0dvvnfAEMIPs7mzxRo2QKKCWrAV9CZ9+PH75/nDx9sf72+vvD38/fX1/vIRfLt4/vTw+vD29469L+HwJn769vj389vb658vX67+/f+kr+19/vP7Vd/jninMmxw7y9t/rD9a4+v8Pv16XPz+93C33prlluTO2HS+PptpluTcxHy/PJoVleTDFHS+vxqZlOcSV4+XNhPUwyTR/vNxZE9f1eVx+f70zpS3rq/FCN86bst4WB1T7QxnreXDCEAQgsgAcUanfJVPqCvAmWwHIphIgDIvvA2AyAiTjlBGmTiYgmxiFg1qT/Qoo0ivgwa2sAMhMAhBMWAGQKSXALdcY62GgJGQTCBCNVZfGFVfXg2+ryIGrxdU1sIW6dHBsOGxhxaWD50sHa5q4Q4gmr2rtW4j4CWCL9dLYoihA3dBLllqKduhkAqqJgh2jH+Q5GQl0KtQaAztfdENv+4DEfI0tVDzEYjwdKQ6Z+4Bq6qqlmIez7AKSZV6FzCpoJjl2jdjGIfcBgZkYMosCRE5TyRsvaCYh4lYtQWYWrpEK2wEy5ZE2ak1Ja6mN7DQByD8qeSK+1niATCfiIXuOachM4tI5jP1mRgTzCffOkYkMMp26QzJxNRxkeuF8OTORQaYX8ZDLOPEEpEEL+4A29puALEO0WJMIMLPePgAZaLUDZKrEXjyzBmQqLRWkj7wCnPHCDiWxa0Cmyg8FAUQSwqg+9gHFlNUON5n7gMq1JGSq2rMggEhCka5RkeNWX4LMqOpPBBAdqcn8UAPboaJcEXaoMNxKAjikKrDqLIEnwMu0W8FCa8RhC+UaNTN7Y4ssEkqFpenSeXDhPqAOYpyAIiOu2UEqE1AltzbHpUNtMim2Td+DLZxwjRY5gLCFcr6WRshPQBg5aR+QTSZAlP1Dm+Q+AXOLI0Bdna8V4zSAiAwARQI7gDqK6589UtWGw6XXEMUvUQPYcE16Kw6QqKWxdvDCEYJYoOtBuWthEQBIvRZO1AAEUf/AE9pGr0WpKTNtAKAq3Q5YianfSh2pDHa/c9emJJRRCN8BokgQADTLAFUwtcrVSdMpqDun/5CExr3l2R3aZohwoqU20sG9HdQU4ebN96ZW7tq4G+3OpKiscc9+5q5tlDs/GxCVq412QviVJZxGddlY4oQ4Co82zqjpw4C8Y7mgvCmOpufOOdTECDkqbWJO5hS/4eMkR0w9VRMgDjY8Kgaoae+HFBGBWoHqxKanlKhGMgHcaFCPSibmbyvvUKdO7uoTeaTIxQBu5dWlAxcDOKSKUZSRDEi6OIbhqCiLkjZupfAEhFGQHxX4abUDZBbVpGwGQCflNxqGSG0QZIqI623QSn03mUed2bZJUQNRtFWUUiBTVaJo3MhbITMrLTkexEFmVo2W3QC8tENvqelIejDdm3a6tJWXRotOzoceXLUQOY3qZQJ0WsxwZnodyGfDE2rl+rBDsEbevCfk2cYfDYAojWYv3buPe2hS4WTeTZUjLms79DHZeiTIVHdIm6EuZFp1pMSDB2yhZlIpcpePLZJwjbRhPmwhL225q0n6GSW2UeNNgNNj48IkgC2yGkznUShMQJUD0T4kpqEu8oMCBONXLcUkm8Xo2Pn6JFvcIaDEI4AbtLAP2Iz6opXOFxJPUAO0JAwXIlsaMtXwBAC7ailk2bSHwCVcmA6/D/BMM5Cp5gjBDkeYAC+JzFf21qCn8T7zPMc3OerzabDQBBT9YBb44dLr4br3xtMbnp56ectk7L3sOPojIh3JyRltfxrdvEMqtbq8ea3V40qXOCm6It/wXOThOrZQEecCD7GwRdJv4FSsO/2c5RyrtW+h3rStiasvYQsvvxLg0Yl83C2b8al8LJskOgsZWQOkzduDLKEDtw1RFj2Ozx6GrnaXb941Zi93sJx8wY93woPlNMP14+uOg+X07YcbU+aj5fTthHQzyzTtZFFueVRlh2YPlhPjWllqbr5DsSeKzLy7ysOW53JW1ltQBH8vpKYibnt2ZdUPfo10uhx/3D58+vb0/Hz9bur+//lDKfx0/cgqfP4P);lineShape=1;fontSize=16;" vertex="1" parent="1">
                    <mxGeometry x="649.2404127880011" y="114.4813122404762" width="254.07039101007655" height="206.60266110120247" as="geometry"/>
                </mxCell>
                <mxCell id="283" value="" style="shape=stencil(7Vnbbhw3DP2afSUkUaKk5zT9jwBxaqOuHTju7e97pltNRtTsiQv0oUD7trvDsxRvh6Tmou++3H/4fHdJ4cvry/OPd78+fHy9v+h3l5Qenu7vXh5e8emi7y/67tPzy90PL88/P328fv/8YZPcPv30/Mv2D79dcVEltw2Vwu9//ZIkxD9/+f4KeHx4OgBSlhpnQJTabgM0SukzIEhPBNAkpwnQpRL5XKToJI8/0NvyJUmtk3yVGIh8kxom+TJ8dipvKmV2qQ6Fp/I1SprtjRKNyJuE2aFBAjl/Q0Bn/5ikTuQRT5vP00RJStTuDwQNmVmg0srsIaMhq0HinHQ5SiM2WJE2xzhXSSQIFkVnJyFNCssiG0m5A+qojHMATjzbYEhEoiGbNBe3KkpsgE/6nHhIrULioPg/BygSyZFUJbrSQWqQ2kSp6Fw7TQcdnAKQann2UqtihQCS9NlLPdA4NAmOXUCBmcTNH6hnTkeS1MsbsVgH+RzkAwlaGk93+SSNyINM5uLsnF7CwqadnieMjNnlTYzQ405Wu3z+xnnizBXgJ5YQwbMv6EkJPYJ9Z3/WOiJ4w//uPKiZQqpSJc321jz624380TzLgy1JfrZBhAf5wgrGPNMB0AkAHnJcCgsYceFIxZlsNIV0YWvEwBjTqafGLchEA8g8zF5tYZDleT9A2s00gTaqDLDT1JHpWNfMS+Gg8IkGmFiXysms8efR5w8AxtbdRo882MDabK+jzx81EKN7W9gF1UOyu+9xPfQDNioA4HIJ/NVY/YeFkcCoyqxGIOZkAmV3boQbX+C4SPIbbvKk3cbIdCsQviv0MW6cA4ofwQBgLPC1ix0AiQF0AVS6KMDr3dlQRsbfApQ51NDJqPsEEMQ4wB2pNdqscABfo0aLehsmlqI2VqMLV6JGO7OhjgO8kWeQaq5joUYDi3RfuNJGhbyxgOBWxsZnNYrRlrlpoQF4OrKCWIgGbMjWvI3K3CDZ6Hi+keVScoVpMD+aHPzwDyG24Sv5QyXi2K3RLtRk31j2nIZKB1Z00tQ8IBDHlu4XeviBjXxYxcxpKJQtMW9k9QA2ZGGiWQFs6tvWkuIBdLPaV7sDgAUuxuH1A4BVxP+Lz79w8eHn/48tPv4aL9HZM6pn+BqGynNAlzxrADXRIjafQqaD889dlH0PKVU6sUHbGKF2QKZJAeZyVzwl0Kjl5m8Ls43d6dZq5e53cxw95RywzKrb/kc0WPR7jAbKLNZ8B9mSne1iyQcuZnoLjoW2z8kaK9ew3M1hD2driWW/WsU9Mre6oGvMyF/GL0VHuexeCvx+0UYbPriVtU1ka3calO49Gr1bE99Y8bjPpIS2xZIPJFAdwOhWst4vAmCMNcCT2QPY+ILGnPNiAyOy4GfbtN+H3AK4XAKZJzpv+16eOGtsgJnska2V3fMGT8YoIEYzALj79ljoRQDcmlyJZrrGANCdDYlvJWlcUh0AiRn9d1+2vQGAD1/f7X16eHy8vho8PvfvAvHT9T2ivv8D);lineShape=1;fontSize=16;" vertex="1" parent="1">
                    <mxGeometry x="937.4048064906515" y="338.40186510114063" width="70.49349459103041" height="32.73355354836269" as="geometry"/>
                </mxCell>
                <mxCell id="284" value="" style="shape=stencil(fZbdcgIhDIWfZm8zQAg/17Z9j85U606tdqz9e/tmZ0c0uJ47xP0I5JwEBl59bp8/1kNwn6fj4W39M76ctgM/DCGM++36OJ50NPDjwKvN4bh+PR6+9i/z74/n6ctp9H74nlb4nbmSKZeJCu5vngmZ6jzzNAO7cX8FVKEsBuBKrgKg9oAE8gkCbLeUhEoEQKSUDZDLeWYRKIl8MEDRmHwfyBrBG6Amyu4+kDxxMoB3jhwgYu7TVAsVkFcWCs4CTBEoF4RctKeOxHIf8IXYpikHikAIf+MNUW94AGSSaoAoFIE3AlOyeWU+p2E5S9yfQZcQILVuQOwZdJNoS9Ls3wA5u2XZTIHECqeJ9kDpSaauRiNVcAY1QhdBzeLBli5WazpkSsBLV25uRaqWRyFawTQzRRIQYirJzq5atkBqLfouwqUxLBepthWb10vrWZY6UOAeyKCCtDV625mm9gmUC4Wc3VLJMMIE1BsA2FW9JraVlQB7n3c9oMKhCLEvIM1zBPZ25/umNQ1tVEC2G+fFCC8g398O2hNQuQlVu752DBfA+q0ptnqO5JFmeuIuo9DY7KjY71UxdJV4EntifPWorW++R/dC4t7V3DlIB5cHx2bc7eb3yvX//QNFp+bHDT/+Aw==);lineShape=1;fontSize=16;" vertex="1" parent="1">
                    <mxGeometry x="578.0888725618836" y="-29.15581365048388" width="5.840674715144303" height="5.831545270447123" as="geometry"/>
                </mxCell>
                <mxCell id="285" value="&lt;b&gt;Flutter Trigonometry&lt;/b&gt;" style="text;strokeColor=none;align=center;fillColor=none;html=1;verticalAlign=middle;whiteSpace=wrap;rounded=0;fontSize=16;" vertex="1" parent="1">
                    <mxGeometry x="756.7099999999999" y="438" width="251.19" height="30" as="geometry"/>
                </mxCell>
                <mxCell id="286" value="&lt;font style=&quot;font-size: 20px;&quot;&gt;This drawing shows how Flutter renders it's axis on a device. It basically takes the normal trigonometry and flips it on it's head so to speak. With this in mind it basically tells us that whatever knowledge we know from normal Trigonometry has to be flipped around for us to apply it in Flutter. This applies to how all angles, circles or degrees are rendered. (&lt;i&gt;More on this on other on the next diagram).&lt;/i&gt;&lt;/font&gt;" style="text;strokeColor=none;align=left;fillColor=none;html=1;verticalAlign=middle;whiteSpace=wrap;rounded=0;fontSize=16;" vertex="1" parent="1">
                    <mxGeometry x="64" y="551" width="1042" height="121" as="geometry"/>
                </mxCell>
            </root>
        </mxGraphModel>
    </diagram>
</mxfile>